<?xml version="1.0" encoding="utf-8"?>
<!-- Generator: Adobe Illustrator 17.0.0, SVG Export Plug-In . SVG Version: 6.00 Build 0)  -->
<!DOCTYPE svg PUBLIC "-//W3C//DTD SVG 1.1//EN" "http://www.w3.org/Graphics/SVG/1.1/DTD/svg11.dtd">
<svg version="1.1" id="Layer_1" xmlns="http://www.w3.org/2000/svg" xmlns:xlink="http://www.w3.org/1999/xlink" x="0px" y="0px"
	 width="850px" height="329px" viewBox="0 0 850 329" enable-background="new 0 0 850 329" xml:space="preserve">
<g>
	<g>
		<path fill="#FFFFFF" d="M695.753,130.808h11.863v1.215h-5.22v13.752h-1.425v-13.752h-5.218V130.808z"/>
		<path fill="#FFFFFF" d="M708.91,130.808h2.096l5.18,13.122l5.157-13.122h2.096v14.967h-1.425v-12.932h-0.044l-5.115,12.932h-1.34
			l-5.134-12.932h-0.044v12.932h-1.427V130.808z"/>
	</g>
	<g>
		<g>
			<path fill="#FFFFFF" d="M89.304,219.915H66.463v-12.184h-0.509c-6.09,9.816-16.581,14.552-26.733,14.552
				c-25.55,0-31.978-14.381-31.978-36.039v-53.806h24.025v49.409c0,14.383,4.23,21.487,15.396,21.487
				c13.029,0,18.613-7.276,18.613-25.042v-45.854h24.026V219.915z"/>
			<path fill="#FFFFFF" d="M126.184,191.49c0.17,10.49,8.969,14.719,18.444,14.719c6.938,0,15.736-2.704,15.736-11.166
				c0-7.276-9.983-9.813-27.24-13.537c-13.874-3.044-27.749-7.95-27.749-23.347c0-22.335,19.288-28.088,38.07-28.088
				c19.12,0,36.716,6.433,38.577,27.919h-22.843c-0.676-9.306-7.783-11.845-16.411-11.845c-5.415,0-13.366,1.018-13.366,8.122
				c0,8.629,13.535,9.813,27.24,13.029c14.044,3.216,27.748,8.291,27.748,24.534c0,23.011-19.964,30.454-39.93,30.454
				c-20.304,0-40.101-7.612-41.116-30.793H126.184z"/>
			<path fill="#FFFFFF" d="M218.226,182.013c0.675,15.231,8.122,22.166,21.488,22.166c9.644,0,17.427-5.92,18.949-11.336h21.15
				c-6.769,20.641-21.15,29.439-40.946,29.439c-27.579,0-44.669-18.949-44.669-46.021c0-26.225,18.105-46.192,44.669-46.192
				c29.78,0,44.162,25.041,42.469,51.944H218.226z M257.311,166.787c-2.2-12.184-7.445-18.611-19.12-18.611
				c-15.227,0-19.626,11.843-19.964,18.611H257.311z"/>
			<path fill="#FFFFFF" d="M295.545,132.438h22.842v16.246h0.338c4.399-11,16.243-18.614,27.918-18.614
				c1.693,0,3.723,0.338,5.245,0.846v22.335c-2.2-0.507-5.752-0.845-8.629-0.845c-17.598,0-23.689,12.691-23.689,28.086v39.424
				h-24.026V132.438z"/>
			<path fill="#FFFFFF" d="M369.652,99.108v120.807h-6.429V99.108H369.652z"/>
			<path fill="#FFFFFF" d="M379.635,132.945h7.615l32.316,79.358l29.78-79.358h7.273l-37.224,96.276
				c-3.552,8.459-6.428,15.059-10.151,17.934c-4.568,3.555-10.49,3.893-20.303,3.893v-5.584c9.137,0,13.705-1.184,18.102-5.582
				c2.54-2.54,4.908-8.97,8.969-20.475L379.635,132.945z"/>
			<path fill="#FFFFFF" d="M497.225,138.532h-18.952v60.742c0,14.044,6.599,15.397,18.783,15.059v5.582
				c-13.199,0.846-25.89-1.015-25.213-20.641v-60.742h-16.071v-5.587h16.071v-27.068h6.43v27.068h18.952V138.532z"/>
			<path fill="#FFFFFF" d="M510.588,116.535V99.108h6.43v17.427H510.588z M510.588,219.915v-86.97h6.43v86.97H510.588z"/>
			<path fill="#FFFFFF" d="M602.97,159.85c-1.184-15.397-13.706-23.347-29.439-23.347c-21.828,0-33.502,19.285-33.502,39.083
				c0,23.519,10.997,40.777,33.502,40.777c16.241,0,28.086-11.169,30.285-27.073h6.43c-2.875,20.812-17.934,32.658-36.715,32.658
				c-28.258,0-39.934-22.166-39.934-46.361c0-24.196,14.214-44.67,39.934-44.67c18.78,0,34.008,9.139,35.869,28.934H602.97z"/>
			<path fill="#FFFFFF" d="M628.347,190.983c1.015,16.074,13.027,25.38,28.763,25.38c11.338,0,27.581-3.385,27.581-18.445
				c0-14.718-14.89-16.92-29.78-19.964c-15.06-3.045-29.947-6.935-29.947-24.704c0-17.258,16.751-22.335,31.469-22.335
				c18.442,0,32.148,7.955,32.148,27.75h-6.428c-0.169-15.736-11.169-22.163-25.721-22.163c-11.843,0-25.038,4.398-25.038,16.748
				c0,13.875,14.89,16.074,28.932,19.121c17.258,3.214,30.792,7.274,30.792,25.546c0,18.783-18.78,24.029-34.008,24.029
				c-19.796,0-34.685-10.661-35.193-30.964H628.347z"/>
		</g>
		<g>
			<path fill="#FFFFFF" d="M158.515,280.546c-1.383-6.338-6.626-9.969-12.619-9.969c-10.891,0-15.5,9.106-15.5,18.094
				c0,8.99,4.609,18.093,15.5,18.093c7.607,0,12.448-5.877,13.196-13.196h3.918c-1.094,10.085-7.491,16.539-17.115,16.539
				c-12.965,0-19.419-10.198-19.419-21.436c0-11.235,6.453-21.436,19.419-21.436c7.779,0,15.502,4.667,16.538,13.311H158.515z"/>
			<path fill="#FFFFFF" d="M192.404,309.242h-3.342v-5.359h-0.115c-1.902,3.975-5.82,6.223-10.257,6.223
				c-7.491,0-10.431-4.38-10.431-11.295v-19.303h3.63v19.362c0.173,5.359,2.19,8.183,7.953,8.183c6.224,0,8.932-5.879,8.932-11.93
				v-15.615h3.63V309.242z"/>
			<path fill="#FFFFFF" d="M217.071,288.209c-0.172-4.495-3.63-6.512-7.778-6.512c-3.228,0-7.03,1.269-7.03,5.131
				c0,3.226,3.688,4.377,6.165,5.012l4.841,1.094c4.148,0.633,8.47,3.055,8.47,8.239c0,6.453-6.397,8.932-11.929,8.932
				c-6.915,0-11.639-3.227-12.216-10.487h3.63c0.288,4.898,3.919,7.435,8.758,7.435c3.4,0,8.126-1.5,8.126-5.649
				c0-3.457-3.227-4.611-6.512-5.415l-4.667-1.038c-4.725-1.269-8.298-2.881-8.298-7.952c0-6.051,5.935-8.356,11.179-8.356
				c5.935,0,10.661,3.111,10.892,9.565H217.071z"/>
			<path fill="#FFFFFF" d="M232.749,279.509h6.051v3.054h-6.051v20.052c0,2.363,0.346,3.746,2.938,3.918
				c1.038,0,2.075-0.056,3.113-0.172v3.111c-1.095,0-2.132,0.115-3.228,0.115c-4.84,0-6.511-1.614-6.453-6.684v-20.341h-5.186
				v-3.054h5.186v-8.932h3.63V279.509z"/>
			<path fill="#FFFFFF" d="M270.668,294.376c0,8.529-4.956,15.731-14.061,15.731c-9.105,0-14.06-7.202-14.06-15.731
				c0-8.529,4.955-15.731,14.06-15.731C265.711,278.644,270.668,285.846,270.668,294.376z M246.177,294.376
				c0,6.338,3.457,12.678,10.43,12.678c6.974,0,10.431-6.34,10.431-12.678c0-6.338-3.457-12.679-10.431-12.679
				C249.635,281.697,246.177,288.037,246.177,294.376z"/>
			<path fill="#FFFFFF" d="M276.09,279.509h3.342v5.013h0.173c1.902-3.573,5.013-5.877,9.739-5.877c3.919,0,7.434,1.902,8.528,5.82
				c1.786-3.919,5.532-5.82,9.45-5.82c6.512,0,9.854,3.399,9.854,10.428v20.169h-3.63v-19.995c0-4.898-1.844-7.55-7.03-7.55
				c-6.281,0-8.068,5.188-8.068,10.721v16.824h-3.63v-20.169c0.057-4.031-1.613-7.376-6.224-7.376c-6.28,0-8.816,4.726-8.874,10.948
				v16.597h-3.63V279.509z"/>
			<path fill="#FFFFFF" d="M326.23,295.354c0.058,5.303,2.823,11.7,9.797,11.7c5.301,0,8.182-3.114,9.335-7.607h3.63
				c-1.557,6.74-5.474,10.659-12.965,10.659c-9.45,0-13.427-7.261-13.427-15.731c0-7.837,3.976-15.731,13.427-15.731
				c9.565,0,13.368,8.356,13.081,16.71H326.23z M345.477,292.302c-0.173-5.474-3.574-10.605-9.451-10.605
				c-5.935,0-9.22,5.188-9.797,10.605H345.477z"/>
			<path fill="#FFFFFF" d="M354.009,279.509h3.342v6.973h0.115c1.844-4.785,5.878-7.607,11.236-7.376v3.629
				c-6.569-0.346-11.064,4.495-11.064,10.661v15.846h-3.63V279.509z"/>
			<path fill="#FFFFFF" d="M389.164,268.099h3.917v41.143h-3.917V268.099z"/>
			<path fill="#FFFFFF" d="M400.92,279.509h3.63v5.128h0.115c1.325-3.572,5.301-5.992,9.508-5.992
				c8.355,0,10.891,4.38,10.891,11.466v19.131h-3.63v-18.554c0-5.129-1.671-8.991-7.549-8.991c-5.763,0-9.22,4.38-9.335,10.2v17.345
				h-3.63V279.509z"/>
			<path fill="#FFFFFF" d="M431.926,295.068v-3.342h14.406v3.342H431.926z"/>
			<path fill="#FFFFFF" d="M455.786,295.7c-0.172,8.47,5.936,11.064,13.427,11.064c4.321,0,10.892-2.363,10.892-8.355
				c0-4.667-4.67-6.512-8.473-7.435l-9.162-2.245c-4.841-1.213-9.277-3.517-9.277-9.914c0-4.033,2.593-11.581,14.175-11.581
				c8.124,0,15.269,4.38,15.213,12.791h-3.919c-0.23-6.279-5.415-9.449-11.238-9.449c-5.357,0-10.313,2.073-10.313,8.183
				c0,3.86,2.881,5.474,6.222,6.282l10.026,2.475c5.823,1.555,10.662,4.093,10.662,10.833c0,2.824-1.153,11.756-15.731,11.756
				c-9.739,0-16.884-4.38-16.423-14.406H455.786z"/>
			<path fill="#FFFFFF" d="M489.616,268.099h3.632v5.82h-3.632V268.099z M489.616,279.509h3.632v29.733h-3.632V279.509z"/>
			<path fill="#FFFFFF" d="M525.345,306.823c-0.056,8.872-3.458,14.291-13.194,14.291c-5.936,0-11.815-2.651-12.333-8.991h3.629
				c0.807,4.38,4.67,5.936,8.704,5.936c6.683,0,9.564-3.975,9.564-11.236v-4.034H521.6c-1.673,3.63-5.188,6.108-9.449,6.108
				c-9.508,0-13.43-6.799-13.43-15.27c0-8.183,4.841-14.982,13.43-14.982c4.321,0,8.006,2.71,9.449,5.992h0.115v-5.128h3.63V306.823
				z M521.715,294.029c0-5.82-2.709-12.333-9.564-12.333c-6.918,0-9.798,6.167-9.798,12.333c0,5.992,3.111,11.812,9.798,11.812
				C518.43,305.841,521.715,300.08,521.715,294.029z"/>
			<path fill="#FFFFFF" d="M532.208,268.099h3.629v16.538h0.115c1.325-3.572,5.302-5.992,9.508-5.992
				c8.355,0,10.889,4.38,10.889,11.466v19.131h-3.629v-18.554c0-5.129-1.671-8.991-7.55-8.991c-5.761,0-9.218,4.38-9.334,10.2
				v17.345h-3.629V268.099z"/>
			<path fill="#FFFFFF" d="M568.974,279.509h6.053v3.054h-6.053v20.052c0,2.363,0.348,3.746,2.94,3.918
				c1.038,0,2.073-0.056,3.113-0.172v3.111c-1.097,0-2.132,0.115-3.229,0.115c-4.839,0-6.51-1.614-6.453-6.684v-20.341h-5.188
				v-3.054h5.188v-8.932h3.629V279.509z"/>
		</g>
		<path fill="#FFFFFF" d="M829.702,6.656H719.827c-7.355,0-13.322,5.956-13.322,13.314v68.256c0,7.358,5.967,13.317,13.322,13.317
			h31.631l-0.005,24.421c0,0,41.623-24.419,41.623-24.421h36.625c7.355,0,13.316-5.959,13.316-13.317V19.97
			C843.018,12.612,837.057,6.656,829.702,6.656z M760.315,80.756V29.22l44.637,25.769L760.315,80.756z"/>
	</g>
</g>
</svg>
